SplineFontDB: 3.2
FontName: CNOCSans-Semibold
FullName: CNOC Sans
FamilyName: CNOCSans
Weight: Semibold
Copyright: Copyright (c) 2023, OrangeCloud & Kevinkesager
UComments: "2023-9-30: Created with FontForge (http://fontforge.org)"
Version: 000.002beta
ItalicAngle: 0
UnderlinePosition: -100
UnderlineWidth: 50
Ascent: 800
Descent: 200
InvalidEm: 0
LayerCount: 3
Layer: 0 0 "Back" 1
Layer: 1 0 "Fore" 0
Layer: 2 0 "Back 2" 1
XUID: [1021 259 -292963172 10689]
OS2Version: 0
OS2_WeightWidthSlopeOnly: 0
OS2_UseTypoMetrics: 1
CreationTime: 1696059784
ModificationTime: 1696598148
OS2TypoAscent: 0
OS2TypoAOffset: 1
OS2TypoDescent: 0
OS2TypoDOffset: 1
OS2TypoLinegap: 0
OS2WinAscent: 0
OS2WinAOffset: 1
OS2WinDescent: 0
OS2WinDOffset: 1
HheadAscent: 0
HheadAOffset: 1
HheadDescent: 0
HheadDOffset: 1
OS2Vendor: 'PfEd'
MarkAttachClasses: 1
DEI: 91125
Encoding: ISO8859-1
UnicodeInterp: none
NameList: AGL For New Fonts
DisplaySize: -48
AntiAlias: 1
FitToEm: 0
WinInfo: 0 19 13
BeginPrivate: 0
EndPrivate
Grid
-1000 607 m 0
 2000 607 l 1024
  Named: "+XA9RmQAA"
EndSplineSet
TeXData: 1 0 0 346030 173015 115343 634975 1048576 115343 783286 444596 497025 792723 393216 433062 380633 303038 157286 324010 404750 52429 2506097 1059062 262144
BeginChars: 256 64

StartChar: A
Encoding: 65 65 0
Width: 703
Flags: HW
LayerCount: 3
Fore
SplineSet
209 192 m 1
 143 4 l 1
 2 15 l 1
 273 778 l 1
 430 778 l 1
 701 15 l 1
 567 4 l 1
 495 192 l 1
 209 192 l 1
348 613 m 1
 238 309 l 1
 465 309 l 1
 354 613 l 1
 348 613 l 1
EndSplineSet
Validated: 1
EndChar

StartChar: x
Encoding: 120 120 1
Width: 672
Flags: HW
LayerCount: 3
Fore
SplineSet
52 608 m 1
 234 607 l 25
 353 439 l 1
 459 608 l 25
 626 608 l 25
 451 323 l 1
 673 -9 l 1
 493 -11 l 1
 347 215 l 1
 188 0 l 1
 25 0 l 1
 248 328 l 1
 52 608 l 1
EndSplineSet
Validated: 1
EndChar

StartChar: X
Encoding: 88 88 2
Width: 767
Flags: HW
LayerCount: 3
Fore
SplineSet
50 788 m 1
 233 788 l 1
 387 544 l 25
 534 788 l 1
 717 788 l 1
 470 408 l 25
 739 0 l 1
 565 0 l 1
 383 279 l 25
 214 0 l 1
 28 0 l 1
 295 414 l 25
 50 788 l 1
EndSplineSet
Validated: 1
EndChar

StartChar: o
Encoding: 111 111 3
Width: 609
Flags: HW
LayerCount: 3
Fore
SplineSet
212 305 m 0
 212 200 257 114 340 114 c 0
 428 114 467 201 467 306 c 0
 467 406 423 495 340 495 c 0
 257 495 212 410 212 305 c 0
76 305 m 0
 76 511 187 624 342 624 c 0
 497 624 606 502 606 306 c 0
 606 101 506 -14 342 -14 c 0
 187 -14 76 99 76 305 c 0
EndSplineSet
Validated: 1
EndChar

StartChar: O
Encoding: 79 79 4
Width: 710
Flags: HW
LayerCount: 3
Fore
SplineSet
158 392 m 0
 158 227 244 107 365 107 c 0
 493 107 570 228 570 394 c 0
 570 553 486 677 365 677 c 0
 244 677 158 568 158 392 c 0
15 393 m 0
 15 662 161 811 364 811 c 0
 567 811 709 652 709 395 c 0
 709 125 579 -25 364 -25 c 0
 161 -25 15 123 15 393 c 0
EndSplineSet
Validated: 1
EndChar

StartChar: n
Encoding: 110 110 5
Width: 586
Flags: HW
VStem: 79.4988 190<182.1 607> 443.5 196<117.6 454.951> 453.5 184<0 274.4>
LayerCount: 3
Fore
SplineSet
316 480 m 0xc0
 345 479 413 462 414 392 c 2xc0
 424 0 l 1
 579 2 l 1xa0
 573 450 l 2
 573 451 l 0
 573 562 478 621 399 621 c 0
 383 621 367 618 353 613 c 0
 286 588 248 566 193 532 c 1
 181 396 l 1
 219 404 276 480 315 480 c 0
 316 480 l 0xc0
213 627 m 1
 69 617 l 1
 69 0 l 1
 219 0 l 1
 229 607 l 2
 213 627 l 1
EndSplineSet
Validated: 5
EndChar

StartChar: v
Encoding: 118 118 6
Width: 620
Flags: HW
LayerCount: 3
Fore
SplineSet
298 233 m 17
 169 617 l 1
 17.142578125 617 l 1
 235.633789062 0 l 1
 375.81640625 0 l 17
 610.142578125 617 l 1
 456.403320312 617 l 1
 325.451171875 233 l 9
 298 233 l 17
375.142578125 0 m 1049
EndSplineSet
Validated: 524297
EndChar

StartChar: i
Encoding: 105 105 7
Width: 207
Flags: HW
LayerCount: 3
Fore
SplineSet
57 800 m 1
 207 800 l 1
 207 650 l 1
 57 650 l 1
 57 800 l 1
207 0 m 17
 57 0 l 1
 57 567 l 1
 207 567 l 1
 207 0 l 17
EndSplineSet
Validated: 1
EndChar

StartChar: d
Encoding: 100 100 8
Width: 598
Flags: HW
LayerCount: 3
Fore
SplineSet
479.478515625 22.453125 m 1
 447.372070312 5.7109375 398.897460938 -22.896484375 353.833007812 -22.896484375 c 0
 198.932617188 -22.896484375 87.591796875 80.2568359375 87.591796875 286 c 0
 87.591796875 491.744140625 188.932617188 614.897460938 343.833007812 614.897460938 c 0
 384.791992188 614.897460938 435.934570312 596.37890625 466.943359375 580.223632812 c 5
 464.739257812 752.1171875 l 1
 480.739257812 772.1171875 l 1
 593.739257812 772.1171875 l 2
 598.739257812 -9.8828125 l 1
 484.739257812 -19.8828125 l 1
 479.478515625 22.453125 l 1
470.891601562 209.22265625 m 13
 468.497070312 405.9921875 l 5
 449.216796875 461.815429688 400.219726562 471.272460938 344.948242188 471.272460938 c 0
 261.75 471.272460938 222.500976562 391.112304688 222.500976562 286.057617188 c 0
 222.500976562 181.002929688 270.75 119.899414062 353.948242188 119.899414062 c 0
 413.713867188 119.899414062 453.125976562 150.256835938 470.891601562 209.22265625 c 13
EndSplineSet
Validated: 524289
EndChar

StartChar: a
Encoding: 97 97 9
Width: 558
Flags: HW
LayerCount: 3
Fore
SplineSet
418 36 m 1
 386 20 337 -9 292 -9 c 0
 137 -9 26 94 26 300 c 0
 26 506 127 641 282 641 c 0
 323 641 384 596 415 580 c 1
 413 598 l 1
 429 618 l 1
 557 611 l 2
 557 4 l 1
 423 -6 l 1
 418 36 l 1
427 218 m 9
 425 419 l 1
 408.01642535 469.056851599 360.670555134 508.726602083 305.102929119 508.726602083 c 0
 298.505497656 508.726602083 291.792169601 508.16740415 285 507 c 0
 184 490 156 405 156 300 c 0
 156 195 209 119 292 119 c 0
 352 119 409 159 427 218 c 9
EndSplineSet
Validated: 524289
EndChar

StartChar: e
Encoding: 101 101 10
Width: 577
Flags: HW
HStem: 291.274 97.9336<203.468 445.14>
LayerCount: 3
Fore
SplineSet
540 157 m 2
 541.138763101 156.43061845 541.737200618 154.528433795 541.737200618 151.551531391 c 0
 541.737200618 123.158582748 487.298141191 -3 328 -3 c 0
 178.194061941 -3 74.755518671 109.606530201 74.755518671 322.853059469 c 0
 74.755518671 328.823244391 74.8365949893 334.872312099 75 341 c 0
 80 527 175 631 329 631 c 0
 546.547368421 630.126315789 560.287202216 381.935623269 560.287202216 319.248756962 c 0
 560.287202216 310.185595568 560 305 560 305 c 2
 542 286 l 1
 197 286 l 1
 195.415996989 278.75884338 194.63847933 270.941625795 194.63847933 262.771398474 c 0
 194.63847933 198.730157934 242.409162641 113 324 113 c 0
 418 113 448 203 448 203 c 2
 540 157 l 2
193 389 m 1
 445 387 l 1
 443 466 410 518 332 519 c 0
 330.079994183 519.041739257 328.184814225 519.062572527 326.31415108 519.062572527 c 0
 238.549143461 519.062572527 204.749564459 473.205211953 193 389 c 1
EndSplineSet
Validated: 524289
EndChar

StartChar: s
Encoding: 115 115 11
Width: 566
Flags: HW
LayerCount: 3
Fore
SplineSet
143 213 m 1
 44 147 l 1
 100 19 171 -13 290 -13 c 0
 422 -13 513 72 513 176 c 0
 513 370 186.696289062 319.228515625 186.696289062 439 c 0
 186.696289062 543.879404929 370.410735886 513.989826814 376.537109375 418.5390625 c 1
 394.888671875 407.069335938 l 1
 394.888878051 407.069451218 492.696289062 438 492.696289062 438 c 1
 494.696289062 532 392.696289062 617 283.696289062 619 c 0
 154.487304688 621.37109375 66.6962890625 534.59375 66.6962890625 452 c 0
 66.6962890625 193.911132812 381.696289062 271.5703125 381.696289062 166 c 256
 381.696289062 91.4962047609 182.536767141 72.5800116283 152.333007812 209.415039062 c 1
 143 213 l 1
376.536747563 418.539532773 m 1025
EndSplineSet
Validated: 524329
EndChar

StartChar: r
Encoding: 114 114 12
Width: 497
Flags: HW
LayerCount: 3
Fore
SplineSet
207 388 m 1
 182 504 l 1
 229 548 258.196289062 583 318.196289062 593 c 0
 460.606445312 616.735351562 471.010742188 542.598632812 501.904296875 436.494140625 c 1
 385.21484375 392.166015625 l 1
 369.677734375 440.048828125 312 506 207 388 c 1
224.196289062 0 m 1
 74.1962890625 0 l 1
 74.1962890625 607 l 1
 224.196289062 607 l 1
 224.196289062 0 l 1
EndSplineSet
Validated: 524325
EndChar

StartChar: f
Encoding: 102 102 13
Width: 402
Flags: HW
LayerCount: 3
Fore
SplineSet
88 511 m 9
 404.713867188 511 l 1
 404.713867188 371 l 1
 87.7138671875 371 l 1
 88 511 l 9
307.713867188 603 m 1
 307.713867188 0 l 1
 157.713867188 0 l 1
 157.713867188 659 l 1
 157.713867188 727 214.713867188 782 285.713867188 782 c 1
 402.713867188 762 l 1
 396.713867188 620 l 1
 334.713867188 630 l 1
 316.713867188 634 307.713867188 622 307.713867188 603 c 1
EndSplineSet
Validated: 524325
EndChar

StartChar: g
Encoding: 103 103 14
Width: 549
Flags: HW
LayerCount: 3
Fore
SplineSet
553 18 m 2
 553 -152 439 -206 302 -206 c 0
 301 -206 299 -206 298 -206 c 0
 134 -205 65 -90 65 -69 c 0
 65 -67 65 -66 66 -66 c 2
 158 -10 l 2
 158 -10 198 -78 282 -80 c 0
 285 -80 287.648398818 -80.096309314 290.394953877 -80.096309314 c 0
 373.407342631 -80.096309314 409.384317475 -50.63004224 421 21 c 1
 424 89 l 1
 393 73 336 54 295 54 c 0
 141 54 59 167 59 333 c 0
 59 499 151 622 305 622 c 0
 350 622 399 593 431 577 c 1
 436 615 l 1
 550 599 l 1
 553 18 l 2
427 390 m 17
 420 429 365 489 306 489 c 0
 222 489 194 408 194 333 c 0
 194 258 213 188 297 188 c 0
 352 188 416 217 425 263 c 1
 427 390 l 17
EndSplineSet
Validated: 524289
EndChar

StartChar: c
Encoding: 99 99 15
Width: 531
Flags: HW
LayerCount: 3
Fore
SplineSet
515 462 m 1
 503 460 l 1
 481.763614872 491.854577692 444.51596158 503.695070178 395.616289573 503.695070178 c 0
 384.647416886 503.695070178 373.092253137 503.09929574 361 502 c 0
 259 493 212 400 212 295 c 0
 212 190 285 117 368 114 c 0
 384.849531812 113.375943266 401.893787027 112.167716322 418.130238423 112.167716322 c 0
 453.928964337 112.167716322 485.800709172 118.04127651 503 149 c 1
 520 143 l 1
 531 31 l 1
 499 15 449 -14 368 -14 c 0
 213 -14 82 89 82 295 c 0
 82 501 203 626 358 626 c 0
 429 626 498 591 529 575 c 1
 515 462 l 1
EndSplineSet
Validated: 524289
EndChar

StartChar: l
Encoding: 108 108 16
Width: 383
Flags: HW
LayerCount: 3
Fore
SplineSet
250 169 m 1
 250 160 258 152 267 152 c 1
 315 152 l 1
 325 0 l 1
 228 0 l 1
 157 0 100 55 100 123 c 1
 105 802 l 1
 255 802 l 1
 250 169 l 1
EndSplineSet
Validated: 1
EndChar

StartChar: u
Encoding: 117 117 17
Width: 559
Flags: HW
LayerCount: 3
Fore
SplineSet
312 127 m 0xc0
 283 128 216 145 214 215 c 2xc0
 219.493164062 607 l 1
 84.4931640625 605 l 1xa0
 75.4931640625 157 l 2
 74.921875 22.099609375 214.279296875 -26.3037109375 295.493164062 4 c 0
 362.493164062 29 400.493164062 51 455.493164062 85 c 1
 447.493164062 211 l 1
 409.493164062 203 352 126 312 127 c 0xc0
415.493164062 -20 m 1
 544.493164062 -10 l 1
 549.493164062 607 l 1
 409.493164062 607 l 1
 399.493164062 0 l 2
 415.493164062 -20 l 1
EndSplineSet
Validated: 524325
EndChar

StartChar: C
Encoding: 67 67 18
Width: 655
Flags: HW
LayerCount: 3
Fore
SplineSet
641 589 m 1
 625 587 l 1
 598 627 549 642 485 642 c 0
 472 642 458.373399601 641.1977833 444 640 c 0
 313 628 253 512 253 380 c 0
 253 248 346 156 453 153 c 0
 474.876802117 152.048834691 497.05517605 150.394001812 518.132770181 150.394001812 c 0
 563.534453378 150.394001812 603.828708198 158.07214088 625 197 c 1
 647 189 l 1
 661 49 l 1
 620 28 557 -8 453 -8 c 0
 254 -8 86 122 86 380 c 0
 86 638 242 795 440 795 c 0
 531 795 619 752 659 732 c 1
 641 589 l 1
EndSplineSet
Validated: 524289
EndChar

StartChar: b
Encoding: 98 98 19
Width: 663
Flags: HWO
LayerCount: 3
Fore
SplineSet
283 12 m 1
 278 -30 l 1
 164 -20 l 1
 171 792 l 2
 284 792 l 1
 300 772 l 1
 299 600 l 1
 330 616 382 635 422 635 c 0
 577 635 679 492 679 286 c 0
 679 80 563 -33 408 -33 c 0
 363 -33 315 -4 283 12 c 1
290 199 m 21
 308 140 349 110 408 110 c 4
 492 110 544 181 544 286 c 4
 544 391 505 491 421 491 c 4
 366 491 317 482 298 426 c 5
 290 199 l 21
EndSplineSet
EndChar

StartChar: k
Encoding: 107 107 20
Width: 648
Flags: HW
LayerCount: 3
Fore
SplineSet
255 429 m 1
 401 628 l 1
 565 628 l 25
 379 343 l 1
 595 -8 l 1
 418 -8 l 1
 254 243 l 1
 253 -8 l 1
 104 -8 l 1
 104 793 l 9
 254 793 l 1
 255 429 l 1
EndSplineSet
Validated: 1
EndChar

StartChar: m
Encoding: 109 109 21
Width: 1030
Flags: HW
LayerCount: 3
Fore
SplineSet
679 480 m 0xc0
 708 479 775.018554688 461.711914062 776.796875 392 c 2xc0
 786.796875 0 l 1
 941.796875 2 l 1xa0
 935.796875 450 l 2
 936.368164062 584.900390625 797.010742188 643.303710938 715.796875 613 c 0
 648.796875 588 610.796875 566 555.796875 532 c 1
 543.796875 396 l 1
 581.796875 404 639 481 679 480 c 0xc0
348.796875 480 m 0xc0
 377.796875 479 445.018554688 461.711914062 446.796875 392 c 2xc0
 456.796875 0 l 1
 611.796875 2 l 1xa0
 605.796875 450 l 2
 606.368164062 584.900390625 467.010742188 643.303710938 385.796875 613 c 0
 318.796875 588 280.796875 566 225.796875 532 c 1
 213.796875 396 l 1
 251.796875 404 308.80859375 481.37890625 348.796875 480 c 0xc0
265.796875 627 m 1
 121.796875 617 l 1
 121.796875 0 l 1
 271.796875 0 l 1
 281.796875 607 l 2
 265.796875 627 l 1
EndSplineSet
Validated: 524325
EndChar

StartChar: p
Encoding: 112 112 22
Width: 594
Flags: HW
LayerCount: 3
Fore
SplineSet
220 596 m 1
 252 612 295 641 340 641 c 0
 495 641 610 528 610 322 c 0
 610 116 509 -17 354 -17 c 0
 313 -17 257 2 226 18 c 1
 226 -164 l 1
 210.090820312 -184.1171875 l 1
 97.0908203125 -184.1171875 l 2
 101.090820312 627.8828125 l 1
 215.090820312 637.8828125 l 1
 220 596 l 1
231.938476562 408.77734375 m 9
 224.333007812 192.0078125 l 1
 243.61328125 136.184570312 297.610351562 126.727539062 352.881835938 126.727539062 c 0
 436.080078125 126.727539062 475.329101562 216.887695312 475.329101562 321.942382812 c 0
 475.329101562 426.997070312 423.080078125 498.100585938 339.881835938 498.100585938 c 0
 280.116210938 498.100585938 249.704101562 467.743164062 231.938476562 408.77734375 c 9
EndSplineSet
Validated: 524289
EndChar

StartChar: q
Encoding: 113 113 23
Width: 585
Flags: HW
LayerCount: 3
Fore
SplineSet
457 590 m 1
 462 632 l 1
 576 622 l 1
 586 -190 l 2
 473 -190 l 1
 457 -170 l 1
 459 22 l 1
 428 6 372 -13 331 -13 c 0
 176 -13 75 110 75 316 c 0
 75 522 186 635 341 635 c 0
 386 635 424 606 457 590 c 1
458 403 m 17
 440 462 401 492 341 492 c 0
 258 492 210 421 210 316 c 0
 210 211 249 131 332 131 c 0
 387 131 441 140 461 196 c 1
 458 403 l 17
EndSplineSet
EndChar

StartChar: j
Encoding: 106 106 24
Width: 381
Flags: HW
LayerCount: 3
Fore
SplineSet
4 -179 m 1
 9 -34 l 1
 28.375 -34 44.13671875 -34.9765625 56.6818847656 -34.9765625 c 0
 84.28125 -34.9765625 96.3125 -30.25 97 -0 c 1
 97 567 l 1
 247 567 l 9
 247 -0 l 1
 247 -172 243 -179 4 -179 c 1
97 800 m 1
 247 800 l 1
 247 650 l 1
 97 650 l 1
 97 800 l 1
EndSplineSet
Validated: 524289
EndChar

StartChar: h
Encoding: 104 104 25
Width: 606
Flags: HW
LayerCount: 3
Fore
SplineSet
336 480 m 0xc0
 365 479 432 462 434 392 c 2xc0
 444 0 l 1
 598.590820312 2 l 1xa0
 592.590820312 450 l 2
 593.162109375 584.900390625 453.8046875 643.303710938 372.590820312 613 c 0
 305.590820312 588 267.590820312 566 212.590820312 532 c 1
 200.590820312 396 l 1
 238.590820312 404 296 481 336 480 c 0xc0
217.590820312 797 m 1
 88.5908203125 787 l 1
 88.5908203125 0 l 1
 238.590820312 0 l 1
 233.590820312 777 l 2
 217.590820312 797 l 1
EndSplineSet
Validated: 524325
EndChar

StartChar: t
Encoding: 116 116 26
Width: 348
Flags: HW
LayerCount: 3
Fore
SplineSet
298 364 m 1
 300 499 l 1
 34 499 l 1
 34 364 l 1
 298 364 l 1
219 169 m 1
 218.952148438 602 l 1
 78.9521484375 602 l 1
 78.9521484375 123 l 1
 78.9521484375 55 125.952148438 0 196.952148438 0 c 1
 283.952148438 0 l 1
 287.952148438 152 l 1
 235.952148438 152 l 1
 226.952148438 152 219 160 219 169 c 1
EndSplineSet
Validated: 524293
EndChar

StartChar: w
Encoding: 119 119 27
Width: 1024
Flags: HW
LayerCount: 3
Fore
SplineSet
542 607 m 1
 563 510 584 414 610 313 c 1
 627 313 l 1
 728 617 l 1
 862 617 l 1
 688 -5 l 1
 577 -5 l 1
 498 291 l 1
 398 0 l 1
 307.491210938 0 l 1
 129 617 l 1
 261 617 l 1
 370.134765625 303 l 1
 387.30859375 303 l 1
 438.260742188 607 l 1
 542 607 l 1
EndSplineSet
Validated: 524289
EndChar

StartChar: W
Encoding: 87 87 28
Width: 1184
Flags: HW
LayerCount: 3
Fore
SplineSet
477 10 m 1049
405 303 m 1
 291 792 l 1
 129 797 l 1
 317.491210938 10 l 1
 477.673828125 10 l 1
 606.890625 450.885742188 l 1
 747.491210938 5 l 1
 917.673828125 5 l 1
 1112 797 l 1
 948.260742188 792 l 1
 827.30859375 303 l 1
 820.134765625 303 l 1
 682 767 l 1
 538.260742188 767 l 1
 412.30859375 303 l 1
 405 303 l 1
EndSplineSet
Validated: 524297
EndChar

StartChar: y
Encoding: 121 121 29
Width: 663
Flags: HW
LayerCount: 3
Fore
SplineSet
545 608 m 17
 327 -40 l 1
 153 -40 l 1
 235 208 l 1
 64 608 l 1
 236 607 l 25
 313 389 l 1
 391 608 l 1
 545 608 l 17
EndSplineSet
Validated: 1
EndChar

StartChar: z
Encoding: 122 122 30
Width: 529
Flags: HW
LayerCount: 3
Fore
SplineSet
42 0 m 1
 486 3 l 1
 486 153 l 1
 239 150 l 1
 465 455 l 1
 468.764648438 605.559570312 l 1
 47.953125 602.559570312 l 1
 47.953125 452.559570312 l 1
 268.045898438 455.559570312 l 1
 45 150 l 1
 42 0 l 1
486 153 m 1025
EndSplineSet
Validated: 524297
EndChar

StartChar: V
Encoding: 86 86 31
Width: 808
Flags: HW
LayerCount: 3
Fore
SplineSet
472 8 m 5
 328.260742188 8 l 5
 39 797 l 5
 211 792 l 5
 402.134765625 243 l 5
 412.30859375 243 l 5
 596.260742188 791 l 5
 770 796 l 5
 472 8 l 5
EndSplineSet
Validated: 524289
EndChar

StartChar: B
Encoding: 66 66 32
Width: 716
Flags: HW
LayerCount: 3
Fore
SplineSet
223 328 m 9
 223 126 l 1
 316 126 l 0
 417 126 491 127 491 229 c 0
 491 325 373 328 312 328 c 0
 309 328 223 328 223 328 c 9
353 789 m 1
 545 783 612 717 612 561 c 0
 611 496 535 429 471 405 c 1
 607 393 649 298 649 221 c 0
 649 161 632 0 370 0 c 2
 88 5 l 1
 88 784 l 1
 353 789 l 1
221 655 m 1
 223 476 l 1
 235 476 230 476 350 476 c 0
 396 476 454 505 454 571 c 0
 454 627 382 655 336 655 c 0
 251 655 221 655 221 655 c 1
EndSplineSet
Validated: 1
EndChar

StartChar: D
Encoding: 68 68 33
Width: 716
Flags: HW
LayerCount: 3
Fore
SplineSet
353 789 m 5
 595 783 659 636 659 398 c 4
 659 226.247070312 624 25 370 0 c 5
 88 5 l 5
 88 784 l 5
 353 789 l 5
220.541992188 655.022460938 m 5
 223.09375 135.807617188 l 5
 498.611060223 136.128393936 523.5546875 200.662109375 523.5546875 411.032226562 c 4
 523.5546875 643.734375 420.0586656 653.725448378 220.541992188 655.022460938 c 5
EndSplineSet
Validated: 524289
EndChar

StartChar: E
Encoding: 69 69 34
Width: 716
Flags: HW
LayerCount: 3
Fore
SplineSet
522 329 m 1
 519 329 223 328 223 328 c 1
 223 126 l 1
 540 124 l 1
 540 0 l 1
 88 0 l 1
 88 784 l 1
 539 784 l 1
 539 648 l 1
 454 648 223 648 223 648 c 1
 223 468 l 1
 235 468 402 466 522 466 c 1
 522 329 l 1
EndSplineSet
Validated: 1
EndChar

StartChar: F
Encoding: 70 70 35
Width: 716
Flags: HW
LayerCount: 3
Fore
SplineSet
223 20 m 1
 88 20 l 1
 88 784 l 1
 539 784 l 1
 539 648 l 1
 454 648 223 648 223 648 c 1
 223 468 l 1
 235 468 392 466 512 466 c 1
 512 329 l 1
 509 329 223 328 223 328 c 1
 223 20 l 1
EndSplineSet
Validated: 1
EndChar

StartChar: G
Encoding: 71 71 36
Width: 888
Flags: HW
LayerCount: 3
Fore
SplineSet
615 297 m 1
 501 297 l 1
 501 412 l 1
 746 414 l 17
 746.848888017 396.173351642 747.438806504 377.277046531 747.438806504 357.738809312 c 0
 747.438806504 193.146873155 705.575034329 -17 424 -17 c 0
 190 -17 105 189 105 401 c 0
 105 689 249 796 431 802 c 1
 643 795 733 655 736 518 c 1
 602 523 l 1
 591 607 527 671 432 671 c 0
 330 670 250 553 250 404 c 0
 250 245 319 117 432 117 c 0
 535 117 613 188 615 297 c 1
EndSplineSet
Validated: 524289
EndChar

StartChar: H
Encoding: 72 72 37
Width: 736
Flags: HW
LayerCount: 3
Fore
SplineSet
512 326 m 5
 512 18 l 5
 647 18 l 5
 647 782 l 5
 512 782 l 5
 512 466 l 5
 223 468 l 5
 223 784 l 5
 88 784 l 5
 88 20 l 5
 223 20 l 5
 223 328 l 5
 512 326 l 5
EndSplineSet
Validated: 9
EndChar

StartChar: I
Encoding: 73 73 38
Width: 736
Flags: HW
LayerCount: 3
Fore
SplineSet
293 649 m 1
 185 649 l 1
 185 784 l 1
 551 784 l 1
 549 649 l 1
 433 649 l 1
 435 153 l 1
 551 153 l 5
 551 18 l 5
 187 18 l 5
 187 153 l 5
 295 153 l 1
 293 649 l 1
EndSplineSet
Validated: 1
EndChar

StartChar: J
Encoding: 74 74 39
Width: 666
Flags: HW
LayerCount: 3
Fore
SplineSet
433 782 m 1
 433 782 438 159 441 155 c 1
 441 25.378011177 422.258065862 -8.83049475931 306.448947361 -8.83049475931 c 0
 268.586851873 -8.83049475931 220.349562692 -5.17405950416 159 0 c 1
 164 131 l 1
 195.610618489 127.940907888 229.560748114 121.24257623 255.380284708 121.24257623 c 0
 280.202315579 121.24257623 297.509848685 127.433342153 298 149 c 1
 298.007952286 148.996023857 298.015853191 148.994039738 298.023702887 148.994039738 c 0
 298.733743571 148.994039738 299.024793388 165.228151751 299.024793388 191.845980466 c 0
 299.024793388 312.950413223 293 649 293 649 c 1
 205 649 l 1
 205 784 l 1
 433 782 l 1
EndSplineSet
Validated: 524289
EndChar

StartChar: Y
Encoding: 89 89 40
Width: 767
Flags: HW
LayerCount: 3
Fore
SplineSet
295 0 m 1
 295 334 l 1
 50 788 l 1
 233 788 l 1
 387 504 l 25
 534 788 l 1
 717 788 l 1
 470 328 l 25
 469 0 l 1
 295 0 l 1
EndSplineSet
Validated: 1
EndChar

StartChar: Z
Encoding: 90 90 41
Width: 683
Flags: HW
LayerCount: 3
Fore
SplineSet
48 0.1455078125 m 1
 664 0 l 1
 663 135 l 1
 228 137 l 1
 626 652 l 1
 626 787.767578125 l 1
 64 788 l 1
 64 653 l 1
 451 652 l 1
 48 137 l 1
 48 0.1455078125 l 1
48 141.795898438 m 1025
EndSplineSet
Validated: 524297
Layer: 2
SplineSet
674 0 m 5
 673 135 l 5
 231 137 l 5
 622.801757812 787.73046875 l 5
 440.092773438 787.73046875 l 5
 -16 788 l 5
 -16 653 l 5
 358 652 l 5
 -38.0546875 0.166015625 l 5
 674 0 l 5
EndSplineSet
EndChar

StartChar: slash
Encoding: 47 47 42
Width: 591
Flags: HW
LayerCount: 3
Fore
SplineSet
376.092773438 787.73046875 m 21
 558.801757812 787.73046875 l 5
 213.655273438 0.166015625 l 5
 27.9453125 0.166015625 l 5
 376.092773438 787.73046875 l 21
EndSplineSet
Validated: 524289
EndChar

StartChar: period
Encoding: 46 46 43
Width: 290
Flags: HW
LayerCount: 3
Fore
SplineSet
62 -13 m 5
 62 154 l 5
 228 154 l 5
 228 -13 l 5
 62 -13 l 5
EndSplineSet
Validated: 1
EndChar

StartChar: U
Encoding: 85 85 44
Width: 965
Flags: HW
LayerCount: 3
Fore
SplineSet
460 5 m 0
 163.797783934 5 149.849203122 196.1776076 149.849203122 643.93682499 c 0
 149.849203122 690.492829245 150 739.822714681 150 792 c 1
 307 792 l 1
 307.023385433 782.154732766 307.033645782 772.419934983 307.033645782 762.795824063 c 0
 307.033645782 693.856262718 306.507170544 630.596224527 306.507170544 573.095620908 c 0
 306.507170544 295.366675657 318.789349812 152 462 152 c 0
 594.895265565 152 606.481610983 291.472822628 606.481610983 567.806025628 c 0
 606.481610983 626.165792495 605.964828926 690.629899115 605.964828926 761.173736816 c 0
 605.964828926 771.323329352 605.975526529 781.598774844 606 792 c 1
 766 792 l 1
 766.407505166 718.513235068 767.054875441 650.469563002 767.054875441 587.746174383 c 0
 767.054875441 188.708138694 740.853607019 5 460 5 c 0
EndSplineSet
Validated: 524289
EndChar

StartChar: Q
Encoding: 81 81 45
Width: 696
Flags: HW
LayerCount: 3
Fore
SplineSet
614.092773438 -19.73046875 m 9
 388.9453125 187.833984375 l 1
 494.655273438 307.833984375 l 1
 716.801757812 110.26953125 l 1
 614.092773438 -19.73046875 l 9
144.145507812 392.466796875 m 0
 144.145507812 226.54296875 229.961914062 106.943359375 350.9765625 106.943359375 c 0
 478.515625 106.943359375 556.073242188 227.60546875 556.073242188 393.528320312 c 0
 556.073242188 552.501953125 471.991210938 676.680664062 350.9765625 676.680664062 c 0
 229.961914062 676.680664062 144.145507812 568.390625 144.145507812 392.466796875 c 0
0.4677734375 392.818359375 m 0
 0.4677734375 662.424804688 146.369140625 810.701171875 349.349609375 810.701171875 c 0
 552.33203125 810.701171875 694.990234375 651.543945312 694.990234375 394.779296875 c 0
 694.990234375 125.173828125 564.51953125 -25.0634765625 349.349609375 -25.0634765625 c 0
 146.369140625 -25.0634765625 0.4677734375 123.2109375 0.4677734375 392.818359375 c 0
EndSplineSet
Validated: 524293
EndChar

StartChar: P
Encoding: 80 80 46
Width: 716
Flags: HW
LayerCount: 3
Fore
SplineSet
400.526367188 329.366210938 m 5
 627.25390625 330.28515625 649.310546875 486.029296875 649.310546875 563.140625 c 4
 649.310546875 623.287109375 631.939453125 784 370 784 c 6
 88 779 l 5
 88 0 l 5
 220 0 l 5
 223.09375 329.192382812 l 5
 400.526367188 329.366210938 l 5
219 456 m 13
 219 658 l 5
 219 658 355.791015625 658 356 658 c 4
 456.625 658 521.146484375 657.256835938 521.146484375 554.650390625 c 4
 521.146484375 459.044921875 413 456 352 456 c 4
 349 456 219 456 219 456 c 13
EndSplineSet
Validated: 524297
EndChar

StartChar: R
Encoding: 82 82 47
Width: 716
Flags: HW
LayerCount: 3
Fore
SplineSet
344 345 m 5
 495 1 l 1
 654 1 l 1
 486 356 l 1
 554 356 641.274382149 420.859435688 641.610351562 536.159179688 c 0
 642.036201308 682.304527126 595 783 353 784 c 1
 88 779 l 1
 88 0 l 1
 223 0 l 1
 223 345 l 1
 344 345 l 5
220 459 m 9
 220 661 l 1
 220 661 346.791015625 661 347 661 c 0
 447.625 661 502.146484375 660.256835938 502.146484375 557.650390625 c 0
 502.146484375 462.044921875 404 459 343 459 c 0
 340 459 220 459 220 459 c 9
EndSplineSet
Validated: 524329
EndChar

StartChar: T
Encoding: 84 84 48
Width: 736
Flags: HW
LayerCount: 3
Fore
SplineSet
293 649 m 1
 55 649 l 1
 55 784 l 1
 681 784 l 1
 679 649 l 1
 433 649 l 1
 435 18 l 1
 295 18 l 1
 293 649 l 1
EndSplineSet
Validated: 1
EndChar

StartChar: N
Encoding: 78 78 49
Width: 764
Flags: HW
LayerCount: 3
Fore
SplineSet
540.435546875 23 m 5
 678.435546875 23 l 5
 678.435546875 782 l 5
 540.435546875 782 l 5
 540.435546875 296 l 5
 251.435546875 784 l 5
 116.435546875 784 l 5
 116.435546875 20 l 5
 251.435546875 20 l 5
 251.435546875 498 l 5
 540.435546875 23 l 5
EndSplineSet
Validated: 524297
EndChar

StartChar: M
Encoding: 77 77 50
Width: 881
Flags: HW
LayerCount: 3
Fore
SplineSet
488 323 m 1
 657 578 l 1
 657 20 l 1
 792 20 l 1
 792 784 l 1
 657 784 l 1
 438 486 l 1
 223 784 l 1
 88 784 l 1
 88 20 l 1
 223 20 l 1
 223 578 l 1
 392 323 l 1
 488 323 l 1
EndSplineSet
Validated: 9
EndChar

StartChar: L
Encoding: 76 76 51
Width: 643
Flags: HW
LayerCount: 3
Fore
SplineSet
128 784 m 1
 270 784 l 1
 270 153 l 1
 546 153 l 1
 546 18 l 1
 130 18 l 1
 128 784 l 1
EndSplineSet
Validated: 1
EndChar

StartChar: K
Encoding: 75 75 52
Width: 626
Flags: HW
LayerCount: 3
Fore
SplineSet
195.478515625 499.310546875 m 1
 391.13671875 787.559570312 l 1
 574.875976562 787.559570312 l 25
 318.884765625 412.90625 l 1
 625.032226562 -8 l 1
 408.032226562 -8 l 1
 194.380859375 312.754882812 l 1
 193.380859375 -8 l 1
 44.380859375 -8 l 1
 44.380859375 793 l 9
 194.380859375 793 l 1
 195.478515625 499.310546875 l 1
EndSplineSet
Validated: 524289
EndChar

StartChar: underscore
Encoding: 95 95 53
Width: 472
Flags: HW
LayerCount: 3
Fore
SplineSet
0 -69 m 5
 472 -69 l 5
 472 -200 l 5
 0 -200 l 5
 0 -69 l 5
EndSplineSet
Validated: 1
EndChar

StartChar: grave
Encoding: 96 96 54
Width: 322
Flags: HW
LayerCount: 3
Fore
SplineSet
42 764 m 1
 151 862 l 1
 290 693 l 1
 190 603 l 5
 42 764 l 1
EndSplineSet
Validated: 1
EndChar

StartChar: zero
Encoding: 48 48 55
Width: 696
Flags: HW
LayerCount: 3
Fore
SplineSet
204.145507812 402.466796875 m 4
 204.145507812 236.54296875 229.961914062 126.943359375 350.9765625 126.943359375 c 0
 478.515625 126.943359375 496.073242188 237.60546875 496.073242188 403.528320312 c 4
 496.073242188 562.501953125 471.991210938 676.680664062 350.9765625 676.680664062 c 0
 229.961914062 676.680664062 204.145507812 578.390625 204.145507812 402.466796875 c 4
60.4677734375 402.818359375 m 4
 60.4677734375 672.424804688 146.369140625 810.701171875 349.349609375 810.701171875 c 0
 552.33203125 810.701171875 634.990234375 661.543945312 634.990234375 404.779296875 c 4
 634.990234375 135.173828125 564.51953125 -5.0634765625 349.349609375 -5.0634765625 c 0
 146.369140625 -5.0634765625 60.4677734375 133.2109375 60.4677734375 402.818359375 c 4
EndSplineSet
Validated: 524289
EndChar

StartChar: eight
Encoding: 56 56 56
Width: 704
Flags: HW
LayerCount: 3
Fore
SplineSet
213.795898438 237.530273438 m 0
 213.795898438 171.606445312 269.612304688 112.006835938 360.626953125 112.006835938 c 0
 458.166015625 112.006835938 505.723632812 172.668945312 505.723632812 238.591796875 c 0
 505.723632812 307.565429688 451.641601562 361.744140625 360.626953125 361.744140625 c 0
 269.612304688 361.744140625 213.795898438 313.454101562 213.795898438 237.530273438 c 0
111.745117188 569.625976562 m 0
 111.745117188 729.232421875 237.646484375 777.508789062 360.626953125 777.508789062 c 4
 483.609375 777.508789062 606.267578125 718.3515625 606.267578125 571.586914062 c 0
 606.267578125 485.3984375 561.374023438 428.0078125 521.5234375 411.04296875 c 1
 575.702148438 384.237304688 634.640625 326.329101562 634.640625 239.842773438 c 0
 634.640625 50.2373046875 494.169921875 0 359 0 c 0
 236.01953125 0 80.1181640625 48.2744140625 80.1181640625 237.881835938 c 0
 80.1181640625 331.140625 140.25390625 389.885742188 195.67578125 415.670898438 c 1
 157.038085938 432.333007812 111.745117188 487.827148438 111.745117188 569.625976562 c 0
361 475 m 24
 423 475 477.350585938 512.44140625 477.350585938 580.3359375 c 0
 477.350585938 629.309570312 413.268554688 673.48828125 362.25390625 673.48828125 c 0
 311.239257812 673.48828125 245.422851562 635.198242188 245.422851562 579.274414062 c 0
 245.422851562 513.030273438 301 475 361 475 c 24
EndSplineSet
Validated: 524289
EndChar

StartChar: backslash
Encoding: 92 92 57
Width: 591
Flags: HW
LayerCount: 3
Fore
SplineSet
384.291015625 0 m 17
 567 0 l 1
 221.853515625 787.564453125 l 1
 36.1435546875 787.564453125 l 1
 384.291015625 0 l 17
EndSplineSet
Validated: 524297
EndChar

StartChar: one
Encoding: 49 49 58
Width: 736
Flags: HW
LayerCount: 3
Fore
SplineSet
295 133 m 5
 293 617 l 1
 185 617 l 1
 185 699 l 1
 232 699 270 737 270 784 c 1
 435 784 l 1
 435 133 l 5
 539 133 l 5
 539 -2 l 5
 175 -2 l 5
 175 133 l 5
 295 133 l 5
EndSplineSet
Validated: 1
EndChar

StartChar: hyphen
Encoding: 45 45 59
Width: 445
Flags: HW
LayerCount: 3
Fore
SplineSet
377.462890625 330 m 1029
93.8427734375 450 m 5
 377.462890625 450 l 5
 377.462890625 330 l 5
 93.8427734375 330 l 5
 93.8427734375 450 l 5
EndSplineSet
Validated: 524289
EndChar

StartChar: S
Encoding: 83 83 60
Width: 669
Flags: HW
LayerCount: 3
Fore
SplineSet
128.1796875 284.448242188 m 1
 128.180664062 284.448242188 30.28125 199.580078125 30.28125 199.580078125 c 1
 102.353515625 34.84375 194.629882812 -6.8203125 347.62109375 -6.8203125 c 0
 518.524414062 -6.8203125 635.291015625 103.006835938 635.291015625 236.990234375 c 0
 635.291015625 487.4921875 194.750976562 421.754882812 194.750976562 576.259765625 c 0
 194.750976562 741.5546875 481.7421875 702.997070312 489.645507812 549.865234375 c 1
 513.319335938 535.069335938 l 1
 609.491210938 574.969726562 l 1
 612.071289062 696.23046875 480.491210938 805.879882812 339.880859375 808.459960938 c 0
 173.201171875 811.518554688 59.951171875 699.576171875 59.951171875 593.030273438 c 0
 59.951171875 260.095703125 496.30078125 360.275390625 496.30078125 224.08984375 c 256
 496.30078125 107.98046875 199.384765625 63.578125 140.422851562 280.095703125 c 1
 128.1796875 284.448242188 l 1
489.645507812 549.866210938 m 1025
EndSplineSet
Validated: 524329
EndChar

StartChar: uni00AD
Encoding: 173 173 61
Width: 404
Flags: HW
LayerCount: 3
Fore
SplineSet
365 330 m 1029
39 450 m 5
 365 450 l 5
 365 330 l 5
 39 330 l 5
 39 450 l 5
EndSplineSet
Validated: 1
EndChar

StartChar: thorn
Encoding: 254 254 62
Width: 558
Flags: HW
LayerCount: 3
Fore
SplineSet
150 578 m 1
 182 594 231 623 276 623 c 0
 431 623 542 520 542 314 c 0
 542 108 441 -27 286 -27 c 0
 245 -27 184 18 153 34 c 1
 155 -174 l 1
 139 -194 l 1
 11 -187 l 2
 11 770 l 1
 145 780 l 1
 150 578 l 1
141 396 m 9
 143 195 l 1
 159.98357465 144.943148401 207.329444866 105.273397917 262.897070881 105.273397917 c 0
 269.494502344 105.273397917 276.207830399 105.83259585 283 107 c 0
 384 124 412 209 412 314 c 0
 412 419 359 495 276 495 c 0
 216 495 159 455 141 396 c 9
EndSplineSet
Validated: 524289
EndChar

StartChar: mu
Encoding: 181 181 63
Width: 559
Flags: HW
LayerCount: 3
Fore
SplineSet
69 -200 m 1
 198 -190 l 1
 208 607 l 1
 68 607 l 1
 53 -180 l 2
 69 -200 l 1
312 127 m 0xc0
 283 128 216 145 214 215 c 2xc0
 219 607 l 1
 84 605 l 1xa0
 75 157 l 2
 75 22 214.279296875 -26.3037109375 295.493164062 4 c 0
 362.493164062 29 400.493164062 51 455.493164062 85 c 1
 447.493164062 211 l 1
 409.493164062 203 352 126 312 127 c 0xc0
415.493164062 -20 m 1
 544.493164062 -10 l 1
 549.493164062 607 l 1
 409.493164062 607 l 1
 399.493164062 0 l 2
 415.493164062 -20 l 1
EndSplineSet
Validated: 524325
EndChar
